<svg width="60" height="60" viewBox="0 0 60 60" fill="none" xmlns="http://www.w3.org/2000/svg">
<circle cx="30" cy="30" r="30" fill="#01E3C2" fill-opacity="0.05"/>
<path d="M42.5587 48.5712H17.4422C17.3617 48.571 17.2845 48.5389 17.2276 48.4818C17.1706 48.4248 17.1387 48.3475 17.1387 48.2669V34.2568C16.5379 34.1434 15.9955 33.8239 15.6051 33.3534C15.2146 32.8828 15.0006 32.2908 15 31.6794V25.8057C15 25.7252 15.0319 25.6479 15.0888 25.5909C15.1457 25.5339 15.2228 25.5018 15.3033 25.5016H22.4445C22.5052 25.1706 22.665 24.8657 22.9027 24.6275C23.1405 24.3892 23.4449 24.2288 23.7758 24.1674V23.2989C23.7758 22.9758 23.904 22.6659 24.1323 22.4371C24.3605 22.2084 24.6702 22.0796 24.9933 22.079C25.0735 22.0801 25.1501 22.1124 25.2068 22.1692C25.2635 22.2259 25.2958 22.3026 25.2969 22.3828C25.2958 22.463 25.2635 22.5397 25.2069 22.5965C25.1502 22.6533 25.0735 22.6857 24.9933 22.6868C24.8312 22.6872 24.676 22.7518 24.5615 22.8665C24.447 22.9812 24.3827 23.1366 24.3827 23.2986V24.1671C24.7136 24.2285 25.0181 24.389 25.2558 24.6272C25.4936 24.8655 25.6533 25.1703 25.714 25.5014H34.2857C34.3466 25.1704 34.5065 24.8657 34.7442 24.6275C34.9819 24.3893 35.2862 24.2288 35.617 24.1671V23.2989C35.617 23.1368 35.5527 22.9814 35.4383 22.8667C35.3238 22.752 35.1685 22.6874 35.0065 22.6871C34.9262 22.6859 34.8497 22.6534 34.7931 22.5965C34.7365 22.5397 34.7043 22.463 34.7034 22.3828C34.7044 22.3026 34.7367 22.226 34.7933 22.1693C34.85 22.1125 34.9265 22.0801 35.0067 22.079C35.3298 22.0797 35.6394 22.2085 35.8676 22.4372C36.0958 22.6659 36.2239 22.9758 36.2239 23.2989V24.1671C36.5548 24.2285 36.8593 24.389 37.097 24.6272C37.3347 24.8655 37.4945 25.1703 37.5552 25.5014H44.6964C44.7769 25.5017 44.854 25.5338 44.9109 25.5908C44.9678 25.6478 44.9998 25.7249 45 25.8054V31.6799C44.9992 32.2912 44.7851 32.8831 44.3946 33.3535C44.0041 33.8238 43.4618 34.1432 42.8611 34.2566V48.2662C42.8613 48.3466 42.8296 48.4239 42.7729 48.4811C42.7162 48.5383 42.6392 48.5707 42.5587 48.5712ZM20.0705 45.9454C19.9899 45.9456 19.9127 45.9777 19.8558 46.0348C19.7989 46.0918 19.7669 46.1691 19.7669 46.2497C19.7665 46.2897 19.774 46.3294 19.7891 46.3665C19.8042 46.4035 19.8265 46.4372 19.8548 46.4655C19.8831 46.4938 19.9167 46.5162 19.9538 46.5314C19.9908 46.5465 20.0305 46.5541 20.0705 46.5537H39.9305C39.9705 46.5541 40.0102 46.5465 40.0472 46.5313C40.0843 46.5162 40.1179 46.4938 40.1462 46.4655C40.1745 46.4372 40.1968 46.4035 40.212 46.3664C40.2271 46.3294 40.2347 46.2897 40.2343 46.2497C40.2343 46.1691 40.2023 46.0917 40.1453 46.0347C40.0884 45.9776 40.0111 45.9455 39.9305 45.9454H20.0705ZM26.9246 32.8203V36.0218C26.9246 36.4258 27.0042 36.8258 27.1588 37.1991C27.3134 37.5723 27.54 37.9114 27.8257 38.1971C28.1113 38.4828 28.4505 38.7094 28.8237 38.864C29.1969 39.0186 29.597 39.0982 30.001 39.0982C30.405 39.0982 30.805 39.0186 31.1783 38.864C31.5515 38.7094 31.8906 38.4828 32.1763 38.1971C32.462 37.9114 32.6886 37.5723 32.8432 37.1991C32.9978 36.8258 33.0774 36.4258 33.0774 36.0218V32.8205L26.9246 32.8203ZM26.621 32.2117H33.3807C33.4607 32.2124 33.5371 32.2449 33.5932 32.3019C33.6494 32.359 33.6806 32.4359 33.6801 32.516V33.6963H42.4009C42.9313 33.6888 43.4375 33.4731 43.8104 33.0958C44.1833 32.7185 44.393 32.2098 44.3943 31.6794V26.1055H15.6066V31.6794C15.6079 32.2098 15.8176 32.7185 16.1904 33.0958C16.5633 33.4731 17.0694 33.6888 17.5998 33.6963H26.317V32.5162C26.3169 32.4356 26.3488 32.3584 26.4057 32.3013C26.4626 32.2443 26.5398 32.2121 26.6203 32.2119L26.621 32.2117Z" fill="#00D7C4"/>
<path d="M30 37.4507C30.2831 37.4517 30.5602 37.3687 30.7961 37.2121C31.032 37.0556 31.2162 36.8326 31.3253 36.5713C31.4344 36.3101 31.4636 36.0223 31.4091 35.7445C31.3546 35.4666 31.219 35.2112 31.0193 35.0105C30.8196 34.8098 30.5648 34.6729 30.2872 34.617C30.0097 34.5611 29.7218 34.5889 29.46 34.6967C29.1982 34.8045 28.9743 34.9876 28.8166 35.2227C28.6588 35.4578 28.5744 35.7345 28.574 36.0176C28.5734 36.3966 28.7232 36.7604 28.9906 37.0291C29.2579 37.2978 29.621 37.4494 30 37.4507Z" fill="#00D7C4"/>
<path d="M26.0687 14.4298C26.0491 14.4494 26.0253 14.4653 26.0057 14.4889C25.711 14.7996 25.551 15.2142 25.5605 15.6423L25.6039 17.9596L25.6285 22.7244V22.902L25.6442 23.4191C25.647 23.5908 25.684 23.7602 25.753 23.9174C25.822 24.0746 25.9215 24.2166 26.0459 24.335C26.2787 24.5617 26.5913 24.6879 26.9163 24.6864H26.9478C27.1256 24.6807 27.3002 24.6377 27.4604 24.5601C27.6205 24.4826 27.7626 24.3723 27.8773 24.2363C27.9174 24.2882 27.9609 24.3374 28.0074 24.3835C28.2508 24.6176 28.5757 24.7479 28.9134 24.7467H28.9488C29.122 24.7429 29.2927 24.7046 29.4509 24.6341C29.6092 24.5636 29.7518 24.4623 29.8705 24.3362C29.895 24.3116 29.9139 24.2849 29.9375 24.2572C29.9723 24.3021 30.0105 24.3443 30.0516 24.3835C30.2946 24.6183 30.6198 24.7487 30.9576 24.7467H30.9891C31.1624 24.7437 31.3333 24.7057 31.4917 24.6352C31.65 24.5647 31.7926 24.463 31.9108 24.3362C31.9353 24.3118 31.9577 24.2853 31.9778 24.2572C32.0136 24.3006 32.0514 24.344 32.0919 24.3835C32.3354 24.6177 32.6604 24.748 32.9982 24.7467H33.0335C33.3819 24.7374 33.7125 24.5906 33.9531 24.3385C34.1937 24.0863 34.3248 23.7492 34.3177 23.4007V22.7224L34.3098 17.8865C34.3099 17.8471 34.3021 17.8081 34.2871 17.7717C34.272 17.7353 34.2499 17.7022 34.2221 17.6743C34.1942 17.6464 34.1612 17.6243 34.1248 17.6092C34.0884 17.5941 34.0494 17.5864 34.01 17.5864H34.0058C33.9664 17.5864 33.9274 17.5942 33.8911 17.6093C33.8547 17.6244 33.8217 17.6465 33.7939 17.6744C33.7661 17.7023 33.7441 17.7353 33.729 17.7717C33.714 17.8081 33.7063 17.8471 33.7064 17.8865L33.7113 22.7224V23.4095C33.7142 23.5032 33.6983 23.5965 33.6646 23.684C33.6309 23.7714 33.58 23.8512 33.515 23.9187C33.4508 23.9867 33.3739 24.0412 33.2886 24.0792C33.2033 24.1172 33.1113 24.138 33.0179 24.1403C32.9245 24.1426 32.8316 24.1263 32.7445 24.0925C32.6574 24.0587 32.5779 24.008 32.5106 23.9433C32.4425 23.8793 32.3879 23.8023 32.3499 23.7169C32.312 23.6314 32.2915 23.5393 32.2897 23.4459L32.2769 22.9207L32.2725 22.7352V22.7074C32.2686 22.6917 32.2686 22.6758 32.2647 22.6601V22.6562C32.2492 22.5897 32.2117 22.5305 32.1582 22.4881C32.1047 22.4458 32.0384 22.4229 31.9702 22.4233H31.942C31.9304 22.4233 31.9174 22.4272 31.9066 22.4272C31.8983 22.4321 31.8888 22.4348 31.8791 22.435C31.8713 22.439 31.8595 22.4429 31.8519 22.4468C31.8419 22.4505 31.8326 22.4558 31.8244 22.4625L31.7999 22.4743C31.7923 22.4829 31.7829 22.4896 31.7724 22.4939C31.7685 22.5018 31.7606 22.5057 31.7567 22.5096C31.7488 22.5214 31.741 22.5293 31.7321 22.5413C31.7271 22.5456 31.723 22.5509 31.7204 22.557C31.7122 22.5679 31.7056 22.5799 31.7007 22.5926C31.6956 22.5969 31.6916 22.6022 31.6889 22.6083C31.685 22.6201 31.6806 22.636 31.6772 22.6478C31.6772 22.6557 31.6732 22.6596 31.6732 22.6635C31.67 22.6791 31.6687 22.695 31.6693 22.7109C31.6693 22.7148 31.6654 22.7187 31.6654 22.7227V23.4098C31.6685 23.5035 31.6529 23.5968 31.6196 23.6844C31.5863 23.7721 31.5359 23.8522 31.4714 23.9201C31.4068 23.9881 31.3294 24.0425 31.2436 24.0803C31.1578 24.1181 31.0653 24.1384 30.9716 24.1401C30.8788 24.143 30.7863 24.1271 30.6997 24.0933C30.6131 24.0596 30.5343 24.0087 30.4678 23.9438C30.3992 23.88 30.3439 23.8031 30.3054 23.7177C30.2668 23.6323 30.2457 23.54 30.2433 23.4463L30.2327 22.9207L30.2288 22.7244V22.6966C30.2258 22.6864 30.2244 22.6757 30.2249 22.665C30.2205 22.6611 30.2205 22.6571 30.2205 22.6493C30.2032 22.585 30.1654 22.5282 30.1127 22.4875C30.06 22.4468 29.9955 22.4246 29.9289 22.4242H29.9014C29.8896 22.4282 29.8769 22.4282 29.8661 22.4321C29.8582 22.4321 29.8504 22.436 29.8415 22.436L29.8062 22.4478C29.8002 22.4526 29.7936 22.4565 29.7866 22.4596C29.7765 22.4656 29.766 22.4708 29.7552 22.4753L29.7395 22.491C29.7316 22.4988 29.7198 22.5067 29.712 22.5155L29.6963 22.5312C29.6884 22.543 29.6806 22.5509 29.6766 22.559L29.6649 22.5835C29.6581 22.5918 29.6528 22.6012 29.6492 22.6112C29.6447 22.6199 29.6421 22.6293 29.6413 22.639C29.6367 22.6493 29.6328 22.6598 29.6295 22.6706C29.6302 22.68 29.6288 22.6895 29.6256 22.6984V23.413C29.6295 23.6019 29.559 23.7848 29.4293 23.9222C29.3321 24.0235 29.2071 24.0938 29.07 24.1243C28.933 24.1548 28.79 24.144 28.659 24.0934C28.528 24.0427 28.415 23.9545 28.3341 23.8398C28.2531 23.725 28.208 23.5889 28.2042 23.4486L28.188 22.9207V22.6998C28.188 22.66 28.1802 22.6206 28.1649 22.5838C28.1497 22.547 28.1274 22.5135 28.0992 22.4854C28.071 22.4572 28.0376 22.4348 28.0008 22.4196C27.964 22.4044 27.9245 22.3965 27.8847 22.3965C27.8449 22.3965 27.8054 22.4044 27.7686 22.4196C27.7318 22.4348 27.6984 22.4572 27.6702 22.4854C27.6421 22.5135 27.6197 22.547 27.6045 22.5838C27.5892 22.6206 27.5814 22.66 27.5814 22.6998V23.3698C27.5856 23.4592 27.5721 23.5486 27.5417 23.6328C27.5113 23.717 27.4645 23.7944 27.4042 23.8605C27.3438 23.9266 27.271 23.9801 27.1899 24.018C27.1088 24.056 27.021 24.0775 26.9316 24.0815C26.8453 24.0838 26.7594 24.069 26.6789 24.0378C26.5985 24.0066 26.525 23.9597 26.4628 23.8999C26.3954 23.8364 26.3414 23.76 26.3042 23.6752C26.267 23.5904 26.2472 23.499 26.2462 23.4063L26.2304 22.8893V22.6959L26.2059 17.955L26.1664 15.6298C26.1626 15.4969 26.1852 15.3645 26.2327 15.2404C26.2802 15.1162 26.3517 15.0026 26.4432 14.9061C26.5347 14.8097 26.6443 14.7322 26.7658 14.6782C26.8873 14.6242 27.0183 14.5948 27.1512 14.5915H27.1551L32.8117 14.4494L33.9346 15.4322C34.6475 16.0678 35.7781 17.2995 35.7781 17.8917V20.7764C35.7781 20.8569 35.8101 20.9341 35.867 20.991C35.9239 21.0479 36.0011 21.0799 36.0817 21.0799C36.1622 21.0799 36.2394 21.0479 36.2963 20.991C36.3532 20.9341 36.3852 20.8569 36.3852 20.7764V17.8899C36.3852 16.8359 34.5447 15.166 34.3329 14.9765L33.5886 14.322C33.7209 14.258 33.8407 14.1711 33.9427 14.0653C34.109 13.8903 34.2197 13.67 34.2609 13.4321C34.3022 13.1942 34.2721 12.9495 34.1745 12.7287C34.077 12.5079 33.9162 12.3209 33.7125 12.1913C33.5089 12.0616 33.2714 11.9952 33.0301 12.0003L26.6557 12.1627C26.4953 12.1665 26.3373 12.2019 26.1906 12.2668C26.0439 12.3318 25.9115 12.4251 25.801 12.5413C25.6904 12.6576 25.6039 12.7945 25.5464 12.9443C25.4889 13.094 25.4615 13.2537 25.4658 13.414C25.4729 13.6203 25.5319 13.8215 25.6373 13.9991C25.7427 14.1766 25.891 14.3247 26.0687 14.4298Z" fill="#00D7C4"/>
</svg>
