<svg width="60" height="60" viewBox="0 0 60 60" fill="none" xmlns="http://www.w3.org/2000/svg">
<circle cx="30" cy="30" r="30" fill="#01E3C2" fill-opacity="0.05"/>
<path d="M42.5 19H42V16.5C42 15.673 41.327 15 40.5 15H39.5C38.673 15 38 15.673 38 16.5V19H22V16.5C22 15.673 21.327 15 20.5 15H19.5C18.673 15 18 15.673 18 16.5V19H17.5C16.1215 19 15 20.1215 15 21.5V42.5C15 43.8785 16.1215 45 17.5 45H42.5C43.8785 45 45 43.8785 45 42.5V21.5C45 20.1215 43.8785 19 42.5 19ZM39 19.5V16.5C39 16.224 39.224 16 39.5 16H40.5C40.776 16 41 16.224 41 16.5V19.5V21.5C41 21.776 40.776 22 40.5 22H39.5C39.224 22 39 21.776 39 21.5V19.5ZM19 19.5V16.5C19 16.224 19.224 16 19.5 16H20.5C20.776 16 21 16.224 21 16.5V19.5V21.5C21 21.776 20.776 22 20.5 22H19.5C19.224 22 19 21.776 19 21.5V19.5ZM44 42.5C44 43.327 43.327 44 42.5 44H17.5C16.673 44 16 43.327 16 42.5V28H44V42.5ZM44 27H16V21.5C16 20.673 16.673 20 17.5 20H18V21.5C18 22.327 18.673 23 19.5 23H20.5C21.327 23 22 22.327 22 21.5V20H38V21.5C38 22.327 38.673 23 39.5 23H40.5C41.327 23 42 22.327 42 21.5V20H42.5C43.327 20 44 20.673 44 21.5V27Z" fill="#00D7C4"/>
<path d="M35.5 21.5H24.5C24.2235 21.5 24 21.7235 24 22V25C24 25.2765 24.2235 25.5 24.5 25.5H35.5C35.7765 25.5 36 25.2765 36 25V22C36 21.7235 35.7765 21.5 35.5 21.5ZM35 24.5H25V22.5H35V24.5Z" fill="#00D7C4"/>
<path d="M21.5 29.5H18.5C18.2235 29.5 18 29.7235 18 30V32.5C18 32.7765 18.2235 33 18.5 33H21.5C21.7765 33 22 32.7765 22 32.5V30C22 29.7235 21.7765 29.5 21.5 29.5ZM21 32H19V30.5H21V32Z" fill="#00D7C4"/>
<path d="M28 29.5H25C24.7235 29.5 24.5 29.7235 24.5 30V32.5C24.5 32.7765 24.7235 33 25 33H28C28.2765 33 28.5 32.7765 28.5 32.5V30C28.5 29.7235 28.2765 29.5 28 29.5ZM27.5 32H25.5V30.5H27.5V32Z" fill="#00D7C4"/>
<path d="M35 29.5H32C31.7235 29.5 31.5 29.7235 31.5 30V32.5C31.5 32.7765 31.7235 33 32 33H35C35.2765 33 35.5 32.7765 35.5 32.5V30C35.5 29.7235 35.2765 29.5 35 29.5ZM34.5 32H32.5V30.5H34.5V32Z" fill="#00D7C4"/>
<path d="M41.5 29.5H38.5C38.2235 29.5 38 29.7235 38 30V32.5C38 32.7765 38.2235 33 38.5 33H41.5C41.7765 33 42 32.7765 42 32.5V30C42 29.7235 41.7765 29.5 41.5 29.5ZM41 32H39V30.5H41V32Z" fill="#00D7C4"/>
<path d="M21.5 34.5H18.5C18.2235 34.5 18 34.7235 18 35V37.5C18 37.7765 18.2235 38 18.5 38H21.5C21.7765 38 22 37.7765 22 37.5V35C22 34.7235 21.7765 34.5 21.5 34.5ZM21 37H19V35.5H21V37Z" fill="#00D7C4"/>
<path d="M28 34.5H25C24.7235 34.5 24.5 34.7235 24.5 35V37.5C24.5 37.7765 24.7235 38 25 38H28C28.2765 38 28.5 37.7765 28.5 37.5V35C28.5 34.7235 28.2765 34.5 28 34.5ZM27.5 37H25.5V35.5H27.5V37Z" fill="#00D7C4"/>
<path d="M35 34.5H32C31.7235 34.5 31.5 34.7235 31.5 35V37.5C31.5 37.7765 31.7235 38 32 38H35C35.2765 38 35.5 37.7765 35.5 37.5V35C35.5 34.7235 35.2765 34.5 35 34.5ZM34.5 37H32.5V35.5H34.5V37Z" fill="#00D7C4"/>
<path d="M41.5 34.5H38.5C38.2235 34.5 38 34.7235 38 35V37.5C38 37.7765 38.2235 38 38.5 38H41.5C41.7765 38 42 37.7765 42 37.5V35C42 34.7235 41.7765 34.5 41.5 34.5ZM41 37H39V35.5H41V37Z" fill="#00D7C4"/>
<path d="M21.5 39.5H18.5C18.2235 39.5 18 39.7235 18 40V42.5C18 42.7765 18.2235 43 18.5 43H21.5C21.7765 43 22 42.7765 22 42.5V40C22 39.7235 21.7765 39.5 21.5 39.5ZM21 42H19V40.5H21V42Z" fill="#00D7C4"/>
<path d="M28 39.5H25C24.7235 39.5 24.5 39.7235 24.5 40V42.5C24.5 42.7765 24.7235 43 25 43H28C28.2765 43 28.5 42.7765 28.5 42.5V40C28.5 39.7235 28.2765 39.5 28 39.5ZM27.5 42H25.5V40.5H27.5V42Z" fill="#00D7C4"/>
<path d="M35.116 39.1801L32.9665 41.7596L31.8535 40.6466L31.1465 41.3536L32.6465 42.8536C32.74 42.9481 32.8675 43.0001 33 43.0001C33.0075 43.0001 33.015 43.0001 33.0225 42.9996C33.163 42.9931 33.294 42.9281 33.3845 42.8206L35.8845 39.8206L35.116 39.1801Z" fill="#00D7C4"/>
<path d="M41.116 39.1801L38.9665 41.7596L37.8535 40.6466L37.1465 41.3536L38.6465 42.8536C38.74 42.9481 38.8675 43.0001 39 43.0001C39.0075 43.0001 39.015 43.0001 39.0225 42.9996C39.163 42.9931 39.294 42.9281 39.3845 42.8206L41.8845 39.8206L41.116 39.1801Z" fill="#00D7C4"/>
</svg>
