<svg width="60" height="60" viewBox="0 0 60 60" fill="none" xmlns="http://www.w3.org/2000/svg">
<circle cx="30" cy="30" r="30" fill="#01E3C2" fill-opacity="0.05"/>
<path d="M38.4658 42.274C38.3613 42.2825 38.2565 42.2637 38.1615 42.2194C38.0665 42.1752 37.9847 42.1069 37.9241 42.0214L36.0109 39.4616H26.8412C26.1626 39.4594 25.5125 39.1892 25.0324 38.7097C24.5522 38.2302 24.2811 37.5804 24.278 36.9019V31.4939H23.9891L22.0759 34.0536C22.0073 34.13 21.9239 34.1917 21.8308 34.2351C21.7378 34.2785 21.6369 34.3026 21.5342 34.3061C21.4298 34.3146 21.325 34.2958 21.23 34.2516C21.1351 34.2074 21.0533 34.1392 20.9926 34.0538L19.0794 31.4939H17.5632C16.8846 31.4917 16.2344 31.2215 15.7543 30.7419C15.2742 30.2624 15.003 29.6126 15 28.934V19.5599C15.003 18.8813 15.2742 18.2315 15.7543 17.752C16.2344 17.2725 16.8846 17.0022 17.5632 17H33.159C33.8376 17.0022 34.4878 17.2725 34.9679 17.752C35.448 18.2315 35.7192 18.8813 35.7222 19.5599V24.9681H42.4003C43.0895 24.9651 43.7517 25.2358 44.2414 25.7208C44.4818 25.9562 44.6728 26.2374 44.8031 26.5477C44.9333 26.858 45.0003 27.1912 45 27.5277V36.9019C44.997 37.5805 44.7258 38.2303 44.2457 38.7098C43.7656 39.1893 43.1154 39.4596 42.4368 39.4618H40.9206L39.0074 42.0216C38.9388 42.098 38.8554 42.1597 38.7623 42.2031C38.6692 42.2464 38.5684 42.2705 38.4658 42.274ZM25.6138 31.4939V36.9021C25.6122 37.0637 25.6429 37.2239 25.704 37.3735C25.7651 37.523 25.8555 37.6589 25.9698 37.773C26.0841 37.8872 26.2201 37.9774 26.3697 38.0383C26.5193 38.0992 26.6796 38.1297 26.8412 38.1278H36.2996C36.404 38.1193 36.5088 38.1381 36.6037 38.1823C36.6986 38.2266 36.7804 38.2947 36.841 38.3801L38.4294 40.4713L40.0179 38.3801C40.0866 38.3038 40.1699 38.2421 40.2629 38.1987C40.356 38.1554 40.4568 38.1313 40.5594 38.1278H42.4366C42.5982 38.1297 42.7585 38.0992 42.9081 38.0383C43.0577 37.9774 43.1937 37.8872 43.308 37.773C43.4223 37.6589 43.5127 37.523 43.5738 37.3735C43.635 37.2239 43.6656 37.0637 43.664 36.9021V27.5639C43.6656 27.4024 43.635 27.2421 43.5738 27.0926C43.5127 26.943 43.4223 26.8072 43.308 26.693C43.1937 26.5788 43.0577 26.4887 42.9081 26.4277C42.7585 26.3668 42.5982 26.3364 42.4366 26.3382H35.7586V28.934C35.7702 29.2293 35.7213 29.5237 35.6147 29.7993H39.5858C39.671 29.7993 39.7554 29.8161 39.8341 29.8487C39.9129 29.8813 39.9844 29.9291 40.0447 29.9894C40.1049 30.0496 40.1527 30.1212 40.1853 30.1999C40.2179 30.2786 40.2347 30.363 40.2347 30.4482C40.2347 30.5334 40.2179 30.6178 40.1853 30.6965C40.1527 30.7753 40.1049 30.8468 40.0447 30.9071C39.9844 30.9673 39.9129 31.0151 39.8341 31.0477C39.7554 31.0803 39.671 31.0971 39.5858 31.0971H34.531C34.1208 31.3572 33.6449 31.4949 33.1592 31.4939H25.6138ZM17.491 18.3342C17.3295 18.3323 17.1692 18.3627 17.0195 18.4236C16.8698 18.4845 16.7339 18.5747 16.6195 18.6889C16.5052 18.8031 16.4148 18.9389 16.3537 19.0885C16.2925 19.238 16.2619 19.3983 16.2635 19.5599V28.934C16.2619 29.0956 16.2925 29.2559 16.3537 29.4054C16.4148 29.555 16.5052 29.6908 16.6195 29.805C16.7339 29.9192 16.8698 30.0094 17.0195 30.0703C17.1692 30.1312 17.3295 30.1616 17.491 30.1597H19.3683C19.4727 30.1512 19.5775 30.17 19.6724 30.2143C19.7673 30.2585 19.8491 30.3267 19.9097 30.4121L21.4981 32.5032L23.0866 30.4121C23.1553 30.3357 23.2386 30.274 23.3316 30.2307C23.4247 30.1873 23.5255 30.1632 23.6281 30.1597H33.0867C33.2483 30.1617 33.4087 30.1314 33.5585 30.0705C33.7082 30.0096 33.8443 29.9195 33.9588 29.8053C34.0732 29.6911 34.1636 29.5552 34.2248 29.4056C34.286 29.256 34.3167 29.0957 34.3151 28.934V19.5599C34.3167 19.3983 34.286 19.2381 34.2249 19.0885C34.1638 18.939 34.0734 18.8031 33.9591 18.689C33.8448 18.5748 33.7088 18.4846 33.5592 18.4237C33.4096 18.3628 33.2493 18.3323 33.0877 18.3342H17.491ZM39.5488 34.8108H29.7292C29.643 34.8123 29.5573 34.7966 29.4773 34.7647C29.3972 34.7328 29.3242 34.6852 29.2627 34.6248C29.2012 34.5644 29.1524 34.4923 29.119 34.4128C29.0857 34.3333 29.0685 34.248 29.0685 34.1617C29.0685 34.0755 29.0857 33.9902 29.119 33.9107C29.1524 33.8312 29.2012 33.7591 29.2627 33.6987C29.3242 33.6383 29.3972 33.5907 29.4773 33.5588C29.5573 33.5269 29.643 33.5112 29.7292 33.5127H39.5486C39.6348 33.5112 39.7205 33.5269 39.8006 33.5588C39.8806 33.5907 39.9536 33.6383 40.0151 33.6987C40.0766 33.7591 40.1254 33.8312 40.1588 33.9107C40.1921 33.9902 40.2093 34.0755 40.2093 34.1617C40.2093 34.248 40.1921 34.3333 40.1588 34.4128C40.1254 34.4923 40.0766 34.5644 40.0151 34.6248C39.9536 34.6852 39.8806 34.7328 39.8006 34.7647C39.7205 34.7966 39.6348 34.8123 39.5486 34.8108H39.5488ZM30.1987 26.8425H20.4152C20.329 26.844 20.2434 26.8283 20.1633 26.7964C20.0832 26.7645 20.0103 26.7169 19.9488 26.6565C19.8873 26.5961 19.8384 26.524 19.8051 26.4445C19.7717 26.365 19.7545 26.2797 19.7545 26.1935C19.7545 26.1072 19.7717 26.0219 19.8051 25.9424C19.8384 25.8629 19.8873 25.7908 19.9488 25.7304C20.0103 25.67 20.0832 25.6224 20.1633 25.5905C20.2434 25.5586 20.329 25.5429 20.4152 25.5445H30.1987C30.2841 25.544 30.3687 25.5606 30.4477 25.593C30.5267 25.6255 30.5985 25.6733 30.6589 25.7336C30.7193 25.794 30.7672 25.8657 30.7998 25.9446C30.8323 26.0236 30.8489 26.1082 30.8486 26.1936C30.8561 26.2712 30.847 26.3495 30.8219 26.4233C30.7968 26.4971 30.7563 26.5648 30.7032 26.6218C30.6388 26.6913 30.5607 26.7468 30.4739 26.7847C30.3871 26.8227 30.2934 26.8424 30.1987 26.8425ZM26.2997 23.0931H20.4152C20.2431 23.0931 20.0781 23.0247 19.9564 22.903C19.8347 22.7813 19.7663 22.6163 19.7663 22.4442C19.7663 22.2721 19.8347 22.107 19.9564 21.9853C20.0781 21.8636 20.2431 21.7953 20.4152 21.7953H26.2997C26.4718 21.7953 26.6369 21.8636 26.7586 21.9853C26.8803 22.107 26.9486 22.2721 26.9486 22.4442C26.9486 22.6163 26.8803 22.7813 26.7586 22.903C26.6369 23.0247 26.4718 23.0931 26.2997 23.0931Z" fill="#01E3C2"/>
</svg>
