<svg width="60" height="60" viewBox="0 0 60 60" fill="none" xmlns="http://www.w3.org/2000/svg">
<circle cx="30" cy="30" r="30" fill="#01E3C2" fill-opacity="0.05"/>
<path d="M46.5453 26.9489L44.8254 28.669L40.0333 23.8773L41.7539 22.157C42.2959 21.615 43.1103 21.548 43.5703 22.0074L46.695 25.1326C47.1542 25.5919 47.0873 26.4068 46.5453 26.9489ZM39.2347 24.6755L44.0268 29.4676L32.5998 40.8944C32.5474 40.9468 32.4019 41.0924 32.1978 41.1444C32.1741 41.1558 32.15 41.1655 32.1261 41.173L26.1624 43.0736C25.9955 43.1264 25.8278 43.0922 25.719 42.9833C25.6098 42.8743 25.5761 42.7068 25.6283 42.5398L27.5289 36.5767C27.537 36.5522 27.5466 36.5284 27.5575 36.5053C27.6098 36.3008 27.7549 36.1556 27.8079 36.1029L29.9553 33.9555H22.7023C22.4099 33.9555 22.1726 33.7183 22.1726 33.4258C22.1726 33.1328 22.4098 32.8963 22.7023 32.8963H31.0146L39.2347 24.6755ZM31.1258 40.5262L28.1758 37.5767L27.3845 40.0607L28.6418 41.3182L31.1258 40.5262ZM39.0506 26.5801C38.8809 26.4103 38.6058 26.4103 38.4365 26.5801L29.5281 35.4879C29.3587 35.6575 29.3587 35.9327 29.5281 36.1023C29.6976 36.272 29.9729 36.272 30.1424 36.1023L39.0506 27.1945C39.2202 27.0247 39.2202 26.7496 39.0506 26.5801ZM38.5123 43.5389C38.5123 43.8571 38.2534 44.1164 37.935 44.1164H27.4237L26.4743 44.4191C26.2836 44.4798 26.0876 44.5104 25.8914 44.5104C25.4737 44.5104 25.0853 44.3673 24.7675 44.1163H19.3109C18.9925 44.1163 18.7329 43.8577 18.7329 43.5388V19.2832C18.7329 18.9648 18.9922 18.7057 19.3109 18.7057H21.4763V19.6201C21.4763 19.9389 21.7348 20.1975 22.054 20.1975C22.3732 20.1975 22.6316 19.9389 22.6316 19.6201V18.7057H25.9521V19.6201C25.9521 19.9388 26.2105 20.1974 26.5297 20.1974C26.8489 20.1974 27.1074 19.9388 27.1074 19.6201V18.7057H29.9948V19.6201C29.9948 19.9388 30.2533 20.1974 30.5726 20.1974C30.8917 20.1974 31.1501 19.9388 31.1501 19.6201V18.7057H34.3267V19.6201C34.3267 19.9388 34.5849 20.1974 34.9039 20.1974C35.2232 20.1974 35.4818 19.9388 35.4818 19.6201V18.7057H37.9361C38.254 18.7057 38.5134 18.9648 38.5134 19.2832V23.2833L39.1188 22.6782L40.246 21.5508V19.2832C40.246 18.0097 39.2098 16.9734 37.9361 16.9734H35.4818V15.5778C35.4818 15.2588 35.2231 15 34.9039 15C34.5853 15 34.3267 15.2585 34.3267 15.5778V16.9734H31.1494V15.5778C31.1494 15.2588 30.891 15 30.5718 15C30.2526 15 29.9941 15.2585 29.9941 15.5778V16.9734H27.1067V15.5778C27.1067 15.2588 26.8482 15 26.5289 15C26.2098 15 25.9514 15.2585 25.9514 15.5778V16.9734H22.6309V15.5778C22.6309 15.2588 22.3724 15 22.0533 15C21.7341 15 21.4756 15.2585 21.4756 15.5778V16.9734H19.3102C18.0366 16.9734 17 18.0097 17 19.2832V43.5385C17 44.8122 18.0367 45.8484 19.3102 45.8484H37.9347C39.2085 45.8484 40.2447 44.8122 40.2447 43.5385V35.1293L38.512 36.8623V43.5389H38.5123ZM34.0012 23.8925H22.7023C22.4099 23.8925 22.1726 24.1294 22.1726 24.4221C22.1726 24.7149 22.4098 24.9517 22.7023 24.9517H34.0012C34.2936 24.9517 34.5308 24.7148 34.5308 24.4221C34.5308 24.1294 34.2936 23.8925 34.0012 23.8925ZM34.0012 28.1626H22.7023C22.4099 28.1626 22.1726 28.3996 22.1726 28.6922C22.1726 28.985 22.4098 29.2219 22.7023 29.2219H34.0012C34.2936 29.2219 34.5308 28.985 34.5308 28.6922C34.5308 28.3996 34.2936 28.1626 34.0012 28.1626Z" fill="#01E3C2"/>
</svg>
